<svg width="24" height="25" viewBox="0 0 24 25" fill="none" xmlns="http://www.w3.org/2000/svg">
<path d="M10.5 9.13604H9V18.136H10.5V9.13604Z" fill="#F33823"/>
<path d="M15 9.13604H13.5V18.136H15V9.13604Z" fill="#F33823"/>
<path d="M3 4.63604V6.13604H4.5V21.136C4.5 21.5339 4.65804 21.9154 4.93934 22.1967C5.22064 22.478 5.60218 22.636 6 22.636H18C18.3978 22.636 18.7794 22.478 19.0607 22.1967C19.342 21.9154 19.5 21.5339 19.5 21.136V6.13604H21V4.63604H3ZM6 21.136V6.13604H18V21.136H6Z" fill="#F33823"/>
<path d="M15 1.63604H9V3.13604H15V1.63604Z" fill="#F33823"/>
</svg>
