<svg width="24" height="25" viewBox="0 0 24 25" fill="none" xmlns="http://www.w3.org/2000/svg">
<path d="M23.205 11.881C22.3229 9.59928 20.7915 7.626 18.8001 6.2051C16.8088 4.78421 14.4447 3.97797 12 3.88604C9.55543 3.97797 7.19134 4.78421 5.19995 6.2051C3.20856 7.626 1.67717 9.59928 0.795047 11.881C0.735473 12.0458 0.735473 12.2263 0.795047 12.391C1.67717 14.6728 3.20856 16.6461 5.19995 18.067C7.19134 19.4879 9.55543 20.2941 12 20.386C14.4447 20.2941 16.8088 19.4879 18.8001 18.067C20.7915 16.6461 22.3229 14.6728 23.205 12.391C23.2646 12.2263 23.2646 12.0458 23.205 11.881ZM12 18.886C8.02505 18.886 3.82505 15.9385 2.30255 12.136C3.82505 8.33354 8.02505 5.38604 12 5.38604C15.975 5.38604 20.175 8.33354 21.6975 12.136C20.175 15.9385 15.975 18.886 12 18.886Z" fill="#F33823"/>
<path d="M12 7.63604C11.11 7.63604 10.24 7.89996 9.49994 8.39443C8.75991 8.88889 8.18314 9.5917 7.84254 10.414C7.50195 11.2362 7.41283 12.141 7.58647 13.0139C7.7601 13.8869 8.18868 14.6887 8.81802 15.318C9.44736 15.9474 10.2492 16.3759 11.1221 16.5496C11.995 16.7232 12.8998 16.6341 13.7221 16.2935C14.5443 15.9529 15.2471 15.3761 15.7416 14.6361C16.2361 13.8961 16.5 13.0261 16.5 12.136C16.5 10.9426 16.0259 9.79797 15.182 8.95406C14.3381 8.11015 13.1935 7.63604 12 7.63604ZM12 15.136C11.4067 15.136 10.8266 14.9601 10.3333 14.6304C9.83994 14.3008 9.45543 13.8323 9.22836 13.2841C9.0013 12.7359 8.94189 12.1327 9.05765 11.5508C9.1734 10.9688 9.45912 10.4343 9.87868 10.0147C10.2982 9.59516 10.8328 9.30944 11.4147 9.19368C11.9967 9.07793 12.5999 9.13734 13.1481 9.3644C13.6962 9.59146 14.1648 9.97598 14.4944 10.4693C14.8241 10.9627 15 11.5427 15 12.136C15 12.9317 14.6839 13.6948 14.1213 14.2574C13.5587 14.82 12.7957 15.136 12 15.136Z" fill="#F33823"/>
</svg>
